{
	"asset":{
		"generator":"Khronos glTF Blender I/O v4.4.55",
		"version":"2.0"
	},
	"scene":0,
	"scenes":[
		{
			"name":"Scene",
			"nodes":[
				0
			]
		}
	],
	"nodes":[
		{
			"mesh":0,
			"name":"Mesh_0"
		}
	],
	"materials":[
		{
			"doubleSided":true,
			"name":"sole",
			"pbrMetallicRoughness":{
				"baseColorFactor":[
					0.800000011920929,
					0.800000011920929,
					0.800000011920929,
					1
				],
				"metallicFactor":0,
				"roughnessFactor":0.5
			}
		},
		{
			"doubleSided":true,
			"name":"body",
			"pbrMetallicRoughness":{
				"baseColorFactor":[
					0.800000011920929,
					0.800000011920929,
					0.800000011920929,
					1
				],
				"metallicFactor":0,
				"roughnessFactor":0.5
			}
		},
		{
			"doubleSided":true,
			"name":"trim",
			"pbrMetallicRoughness":{
				"baseColorFactor":[
					0.800000011920929,
					0.800000011920929,
					0.800000011920929,
					1
				],
				"metallicFactor":0,
				"roughnessFactor":0.5
			}
		},
		{
			"doubleSided":true,
			"name":"laces",
			"pbrMetallicRoughness":{
				"baseColorFactor":[
					0.800000011920929,
					0.800000011920929,
					0.800000011920929,
					1
				],
				"metallicFactor":0,
				"roughnessFactor":0.5
			}
		}
	],
	"meshes":[
		{
			"name":"Mesh_0",
			"primitives":[
				{
					"attributes":{
						"POSITION":0,
						"NORMAL":1,
						"TEXCOORD_0":2
					},
					"indices":3
				},
				{
					"attributes":{
						"POSITION":4,
						"NORMAL":5,
						"TEXCOORD_0":6
					},
					"indices":7,
					"material":0
				},
				{
					"attributes":{
						"POSITION":8,
						"NORMAL":9,
						"TEXCOORD_0":10
					},
					"indices":11,
					"material":1
				},
				{
					"attributes":{
						"POSITION":12,
						"NORMAL":13,
						"TEXCOORD_0":14
					},
					"indices":15,
					"material":2
				},
				{
					"attributes":{
						"POSITION":16,
						"NORMAL":17,
						"TEXCOORD_0":18
					},
					"indices":19,
					"material":3
				}
			]
		}
	],
	"accessors":[
		{
			"bufferView":0,
			"componentType":5126,
			"count":433,
			"max":[
				0.3085159957408905,
				0.32959499955177307,
				0.22527100145816803
			],
			"min":[
				-0.20895299315452576,
				-0.2711449861526489,
				-0.8788920044898987
			],
			"type":"VEC3"
		},
		{
			"bufferView":1,
			"componentType":5126,
			"count":433,
			"type":"VEC3"
		},
		{
			"bufferView":2,
			"componentType":5126,
			"count":433,
			"type":"VEC2"
		},
		{
			"bufferView":3,
			"componentType":5123,
			"count":897,
			"type":"SCALAR"
		},
		{
			"bufferView":4,
			"componentType":5126,
			"count":3739,
			"max":[
				0.44652289152145386,
				0.06609400361776352,
				1.003428339958191
			],
			"min":[
				-0.4635550081729889,
				-0.6028609275817871,
				-1.0052143335342407
			],
			"type":"VEC3"
		},
		{
			"bufferView":5,
			"componentType":5126,
			"count":3739,
			"type":"VEC3"
		},
		{
			"bufferView":6,
			"componentType":5126,
			"count":3739,
			"type":"VEC2"
		},
		{
			"bufferView":7,
			"componentType":5123,
			"count":12741,
			"type":"SCALAR"
		},
		{
			"bufferView":8,
			"componentType":5126,
			"count":3697,
			"max":[
				0.37230199575424194,
				0.5030310153961182,
				0.9973641037940979
			],
			"min":[
				-0.4263229966163635,
				-0.42144474387168884,
				-0.8837260007858276
			],
			"type":"VEC3"
		},
		{
			"bufferView":9,
			"componentType":5126,
			"count":3697,
			"type":"VEC3"
		},
		{
			"bufferView":10,
			"componentType":5126,
			"count":3697,
			"type":"VEC2"
		},
		{
			"bufferView":11,
			"componentType":5123,
			"count":13116,
			"type":"SCALAR"
		},
		{
			"bufferView":12,
			"componentType":5126,
			"count":342,
			"max":[
				0.38261064887046814,
				0.5964159965515137,
				-0.6856290102005005
			],
			"min":[
				-0.1029694676399231,
				-0.15031009912490845,
				-0.9691540598869324
			],
			"type":"VEC3"
		},
		{
			"bufferView":13,
			"componentType":5126,
			"count":342,
			"type":"VEC3"
		},
		{
			"bufferView":14,
			"componentType":5126,
			"count":342,
			"type":"VEC2"
		},
		{
			"bufferView":15,
			"componentType":5123,
			"count":1122,
			"type":"SCALAR"
		},
		{
			"bufferView":16,
			"componentType":5126,
			"count":928,
			"max":[
				0.21825900673866272,
				0.3860799968242645,
				0.44940900802612305
			],
			"min":[
				-0.35383298993110657,
				-0.060488998889923096,
				-0.05087700113654137
			],
			"type":"VEC3"
		},
		{
			"bufferView":17,
			"componentType":5126,
			"count":928,
			"type":"VEC3"
		},
		{
			"bufferView":18,
			"componentType":5126,
			"count":928,
			"type":"VEC2"
		},
		{
			"bufferView":19,
			"componentType":5123,
			"count":2067,
			"type":"SCALAR"
		}
	],
	"bufferViews":[
		{
			"buffer":0,
			"byteLength":5196,
			"byteOffset":0,
			"target":34962
		},
		{
			"buffer":0,
			"byteLength":5196,
			"byteOffset":5196,
			"target":34962
		},
		{
			"buffer":0,
			"byteLength":3464,
			"byteOffset":10392,
			"target":34962
		},
		{
			"buffer":0,
			"byteLength":1794,
			"byteOffset":13856,
			"target":34963
		},
		{
			"buffer":0,
			"byteLength":44868,
			"byteOffset":15652,
			"target":34962
		},
		{
			"buffer":0,
			"byteLength":44868,
			"byteOffset":60520,
			"target":34962
		},
		{
			"buffer":0,
			"byteLength":29912,
			"byteOffset":105388,
			"target":34962
		},
		{
			"buffer":0,
			"byteLength":25482,
			"byteOffset":135300,
			"target":34963
		},
		{
			"buffer":0,
			"byteLength":44364,
			"byteOffset":160784,
			"target":34962
		},
		{
			"buffer":0,
			"byteLength":44364,
			"byteOffset":205148,
			"target":34962
		},
		{
			"buffer":0,
			"byteLength":29576,
			"byteOffset":249512,
			"target":34962
		},
		{
			"buffer":0,
			"byteLength":26232,
			"byteOffset":279088,
			"target":34963
		},
		{
			"buffer":0,
			"byteLength":4104,
			"byteOffset":305320,
			"target":34962
		},
		{
			"buffer":0,
			"byteLength":4104,
			"byteOffset":309424,
			"target":34962
		},
		{
			"buffer":0,
			"byteLength":2736,
			"byteOffset":313528,
			"target":34962
		},
		{
			"buffer":0,
			"byteLength":2244,
			"byteOffset":316264,
			"target":34963
		},
		{
			"buffer":0,
			"byteLength":11136,
			"byteOffset":318508,
			"target":34962
		},
		{
			"buffer":0,
			"byteLength":11136,
			"byteOffset":329644,
			"target":34962
		},
		{
			"buffer":0,
			"byteLength":7424,
			"byteOffset":340780,
			"target":34962
		},
		{
			"buffer":0,
			"byteLength":4134,
			"byteOffset":348204,
			"target":34963
		}
	],
	"buffers":[
		{
			"byteLength":352340,
			"uri":"Generate_a_3D_model_o_0421145149_texture.bin"
		}
	]
}
