<?xml version="1.0" standalone="no"?>
<!DOCTYPE svg PUBLIC "-//W3C//DTD SVG 20010904//EN"
 "http://www.w3.org/TR/2001/REC-SVG-20010904/DTD/svg10.dtd">
<svg version="1.0" xmlns="http://www.w3.org/2000/svg"
 width="1026.000000pt" height="487.000000pt" viewBox="0 0 1026.000000 487.000000"
 preserveAspectRatio="xMidYMid meet">

<g transform="translate(0.000000,487.000000) scale(0.100000,-0.100000)"
fill="#000000" stroke="none">
<path d="M0 2435 l0 -2435 5130 0 5130 0 0 2435 0 2435 -5130 0 -5130 0 0
-2435z m6620 1884 c10 -5 -5 -8 -40 -9 -65 0 -102 9 -94 22 7 10 110 1 134
-13z m-232 -306 c-16 -2 -40 -2 -55 0 -16 2 -3 4 27 4 30 0 43 -2 28 -4z m231
-68 c3 -17 1 -18 -14 -5 -15 12 -18 12 -26 -3 -6 -9 -18 -17 -29 -17 -16 0
-17 3 -7 25 10 20 18 25 42 23 20 -2 31 -9 34 -23z m-1425 -221 c9 -23 -1 -30
-22 -18 -10 6 -33 9 -52 7 l-35 -4 25 15 c34 20 76 20 84 0z m161 -149 c35
-25 42 -35 25 -30 -40 11 -81 38 -99 64 -15 23 -15 24 4 13 11 -6 43 -27 70
-47z m-547 -107 c5 -7 12 -39 14 -70 5 -57 16 -85 25 -60 5 13 53 17 53 4 0
-5 9 -18 20 -30 l21 -22 -21 0 c-11 0 -20 -7 -20 -15 0 -23 -34 -18 -60 10
-12 13 -26 22 -30 20 -4 -3 -8 28 -9 67 -1 51 -6 77 -18 90 -14 16 -14 18 -1
18 9 0 20 -6 26 -12z m-29 -162 c10 -11 8 -16 -9 -21 -26 -8 -33 -3 -24 19 8
20 18 20 33 2z m1521 -61 c-7 -8 -17 -15 -23 -15 -6 0 -2 7 9 15 25 19 30 19
14 0z m-1255 -15 c3 -6 -1 -7 -9 -4 -18 7 -21 14 -7 14 6 0 13 -4 16 -10z
m1175 -20 c-8 -5 -26 -9 -40 -9 l-25 1 25 8 c14 4 32 8 40 9 13 1 13 0 0 -9z
m-1100 -26 c0 -2 -9 0 -20 6 -11 6 -20 13 -20 16 0 2 9 0 20 -6 11 -6 20 -13
20 -16z m-573 -64 c9 0 14 -3 10 -6 -3 -4 -17 -4 -31 0 -18 4 -24 11 -19 22 5
15 7 15 15 0 5 -9 16 -16 25 -16z m91 -7 c-10 -2 -26 -2 -35 0 -10 3 -2 5 17
5 19 0 27 -2 18 -5z m363 -95 c22 -27 39 -51 36 -54 -3 -3 -18 12 -33 33 -35
47 -42 52 -63 46 -9 -2 -22 5 -29 17 -10 17 -9 23 10 42 l22 22 7 -28 c5 -16
27 -51 50 -78z m-246 33 c3 -19 1 -39 -6 -47 -8 -10 -8 -14 0 -14 20 0 12 -16
-15 -31 l-26 -13 31 -9 c22 -5 31 -13 31 -28 0 -17 -4 -20 -22 -15 -13 4 -40
10 -60 13 -44 7 -49 20 -13 29 19 5 25 13 25 35 0 17 -5 29 -13 29 -7 0 -18 5
-24 11 -12 12 16 42 62 67 24 13 23 14 30 -27z m-135 -135 c0 -2 -13 -6 -30
-8 -16 -3 -30 -1 -30 4 0 4 14 8 30 8 17 0 30 -2 30 -4z m-108 -58 c-7 -7 -12
-8 -12 -2 0 6 3 14 7 17 3 4 9 5 12 2 2 -3 -1 -11 -7 -17z m122 -156 c-5 -24
-1 -30 28 -44 22 -11 27 -17 15 -17 -12 -1 -16 -5 -11 -13 5 -8 0 -7 -11 2
-27 22 -57 93 -42 102 18 11 27 -1 21 -30z m-248 -86 c7 12 11 11 22 -7 13
-20 12 -21 -3 -15 -14 5 -16 4 -6 -7 8 -11 6 -18 -9 -32 -18 -17 -19 -16 -25
8 -4 14 -18 35 -31 48 -36 33 -29 45 9 16 28 -21 35 -23 43 -11z m553 -35 c26
-36 26 -41 2 -41 -10 0 -21 8 -24 18 -2 9 -8 25 -12 35 -12 28 12 20 34 -12z
m-743 -143 c38 -44 45 -56 35 -62 -14 -9 -71 43 -71 65 0 25 12 24 36 -3z
m199 -82 c0 -24 -3 -42 -7 -39 -5 2 -8 22 -8 44 0 21 3 39 8 39 4 0 7 -20 7
-44z m-125 -142 c0 -7 16 -32 36 -54 23 -25 31 -40 22 -40 -18 0 -58 36 -83
74 -15 23 -16 29 -5 36 17 11 30 4 30 -16z"/>
</g>
</svg>
