<?xml version="1.0" standalone="no"?>
<!DOCTYPE svg PUBLIC "-//W3C//DTD SVG 20010904//EN"
 "http://www.w3.org/TR/2001/REC-SVG-20010904/DTD/svg10.dtd">
<svg version="1.0" xmlns="http://www.w3.org/2000/svg"
 width="861.000000pt" height="475.000000pt" viewBox="0 0 861.000000 475.000000"
 preserveAspectRatio="xMidYMid meet">

<g transform="translate(0.000000,475.000000) scale(0.100000,-0.100000)"
fill="#000000" stroke="none">
<path d="M0 2375 l0 -2375 4305 0 4305 0 0 2375 0 2375 -4305 0 -4305 0 0
-2375z m6053 1903 c13 -13 31 -49 41 -80 16 -53 16 -62 3 -105 -29 -92 -40
-156 -34 -212 7 -76 66 -229 109 -283 139 -171 285 -449 303 -574 4 -27 22
-80 40 -119 18 -38 41 -99 51 -135 10 -35 36 -96 58 -135 74 -130 94 -180 116
-287 21 -100 21 -109 7 -155 -9 -26 -21 -77 -27 -112 -14 -78 -55 -145 -137
-222 -62 -59 -128 -99 -163 -99 -11 0 -38 11 -60 25 -54 34 -73 32 -93 -10
-15 -31 -21 -35 -55 -35 -50 0 -78 -21 -87 -66 -11 -64 -32 -88 -108 -131
l-40 -22 -38 20 c-21 10 -41 19 -44 19 -3 0 -20 -16 -38 -35 -27 -29 -47 -38
-131 -60 -103 -26 -205 -32 -266 -15 -20 5 -51 26 -70 46 -74 76 -167 104
-351 104 l-120 0 -67 -44 c-156 -103 -235 -200 -247 -306 -11 -89 -32 -134
-80 -170 -24 -18 -49 -45 -55 -60 -12 -29 -98 -103 -215 -184 l-70 -48 -37 21
c-52 29 -76 28 -83 -6 -17 -83 -20 -88 -65 -110 -60 -29 -80 -28 -120 7 -21
17 -47 29 -63 30 -29 0 -29 0 -25 -55 l3 -55 -65 -23 c-161 -60 -259 -72 -386
-49 -78 15 -110 27 -146 57 -17 14 -42 25 -59 25 -24 0 -29 -4 -29 -24 0 -54
-70 -42 -136 25 -27 27 -53 49 -59 49 -6 0 -18 -9 -28 -20 -25 -30 -51 -25
-154 30 -53 29 -107 50 -124 50 -31 0 -92 44 -168 121 -20 20 -57 48 -82 62
-54 31 -84 67 -131 162 -62 124 -81 188 -75 252 8 74 50 144 95 157 21 6 45
26 68 58 51 69 188 163 305 208 61 24 162 74 199 100 14 9 64 31 113 48 48 18
105 41 126 51 40 21 47 37 66 152 6 38 32 66 128 139 65 48 77 65 77 107 0 30
11 49 43 72 14 11 20 11 32 1 13 -10 19 -10 35 5 30 27 70 100 70 128 0 14 7
30 15 37 13 11 20 9 39 -9 l24 -22 31 38 c17 21 31 43 31 50 0 6 7 19 16 28 9
8 13 23 10 32 -6 14 -8 14 -25 -1 -32 -29 -34 0 -4 61 33 68 75 109 121 118
23 4 37 14 45 33 12 28 35 65 69 115 l19 28 -38 -7 c-21 -3 -55 -12 -76 -19
-33 -11 -39 -11 -44 2 -4 9 -2 21 3 29 5 7 25 36 45 66 48 69 126 148 172 173
22 12 45 36 59 62 13 25 30 43 40 43 11 0 38 41 82 124 66 123 67 125 122 150
62 28 82 31 128 16 17 -5 42 -12 56 -14 14 -3 46 -19 71 -35 43 -29 75 -79 94
-148 7 -24 68 -72 123 -98 19 -9 95 -32 170 -51 120 -31 149 -35 237 -32 l99
3 71 51 c70 52 119 108 169 195 24 42 26 55 26 163 0 94 4 124 17 147 21 36
26 37 180 42 67 1 125 6 129 10 4 3 2 55 -2 114 -8 94 -7 115 9 166 22 68 35
75 125 76 52 1 67 -3 85 -21z"/>
<path d="M5977 4229 c-31 -35 -36 -76 -17 -124 17 -43 32 -12 20 41 -15 61
-14 63 30 57 32 -5 40 -2 40 10 0 54 -33 61 -73 16z"/>
<path d="M5585 3278 c-49 -33 -112 -81 -169 -129 -16 -14 59 8 114 33 39 18
66 40 93 75 57 77 50 81 -38 21z"/>
<path d="M3916 3164 c-14 -10 -17 -17 -10 -24 8 -8 15 -6 23 4 19 23 9 37 -13
20z"/>
<path d="M3860 3156 c0 -9 -5 -16 -12 -16 -6 0 -8 -3 -5 -7 4 -3 0 -14 -8 -23
-14 -16 -14 -18 0 -23 28 -11 45 4 45 38 0 19 -4 37 -10 40 -5 3 -10 -1 -10
-9z"/>
<path d="M4030 3041 c-11 -22 3 -31 15 -10 4 6 14 8 22 5 9 -4 13 -1 11 6 -8
22 -36 20 -48 -1z"/>
<path d="M4080 2870 c0 -5 5 -10 10 -10 6 0 10 5 10 10 0 6 -4 10 -10 10 -5 0
-10 -4 -10 -10z"/>
<path d="M3786 2649 c6 -11 31 -12 37 -1 3 4 -6 8 -19 8 -13 1 -21 -2 -18 -7z"/>
<path d="M5226 2510 c-66 -26 -84 -43 -66 -65 10 -12 28 -15 79 -13 62 3 66 4
69 28 1 14 -6 35 -15 47 l-18 22 -49 -19z"/>
<path d="M3944 2485 c-18 -14 -18 -14 7 -15 15 0 32 7 39 15 10 12 9 15 -7 15
-10 0 -28 -7 -39 -15z"/>
<path d="M2390 1054 c0 -7 91 -46 96 -41 2 2 -18 14 -46 25 -27 11 -50 19 -50
16z"/>
</g>
</svg>
